<svg width="81" height="40" viewBox="0 0 81 40" fill="none" xmlns="http://www.w3.org/2000/svg">
<path d="M27.5401 10V13.8592H21.5319V29.7746H16.0082V13.8592H10V10H27.5401Z" fill="white"/>
<path d="M53.6345 13.8873C55.8741 13.8873 57.6508 14.4789 58.9644 15.662C60.2995 16.8451 60.9671 18.4883 60.9671 20.5915V29.7746H55.4757V21.2394C55.4757 20.2254 55.1635 19.446 54.539 18.9014C53.936 18.338 53.0961 18.0563 52.0194 18.0563C50.9427 18.0563 50.092 18.338 49.4675 18.9014C48.8646 19.446 48.5631 20.2254 48.5631 21.2394V29.7746H43.0717V21.2394C43.0717 20.2254 42.7594 19.446 42.1349 18.9014C41.5319 18.338 40.6921 18.0563 39.6153 18.0563C38.5386 18.0563 37.688 18.338 37.0635 18.9014C36.4605 19.446 36.159 20.2254 36.159 21.2394V29.7746H30.6353V14.0563H36.159V16.0282C36.7189 15.3709 37.4511 14.8545 38.3556 14.4789C39.26 14.0845 40.2829 13.8873 41.4243 13.8873C42.781 13.8873 43.9869 14.1408 45.0421 14.6479C46.1189 15.1549 46.9587 15.8779 47.5617 16.8169C48.1862 15.953 49.0368 15.2488 50.1136 14.7042C51.1903 14.1596 52.364 13.8873 53.6345 13.8873Z" fill="white"/>
<path d="M67.7375 30C66.7684 30 65.9716 29.7559 65.3471 29.2676C64.7441 28.7606 64.4426 28.1408 64.4426 27.4085C64.4426 26.6573 64.7441 26.0282 65.3471 25.5211C65.9716 25.0141 66.7684 24.7606 67.7375 24.7606C68.685 24.7606 69.4603 25.0141 70.0632 25.5211C70.6877 26.0282 71 26.6573 71 27.4085C71 28.1408 70.6877 28.7606 70.0632 29.2676C69.4603 29.7559 68.685 30 67.7375 30Z" fill="white"/>
</svg>
